# xmcd
#
# Track frame offsets:
#  150
#  14140
#  30375
#  44100
#  62400
#  81092
#  98270
#  118292
#  127745
#  140230
#  156462
#  169200
#  188100
#  199275
#  208875
#
# Disc length: 3091 seconds
#
# Revision: 0
# Processed by: cddbd v1.4PL0 Copyright (c) Steve Scherf et al.
# Submitted via: AltoMP3_Maker 3.0
#
DISCID=dc0c110f
DTITLE=disc 2 - God's Country and Western
DYEAR=1900
DGENRE=
TTITLE0=A Single Minded Message (To A Double Minded Man)
TTITLE1=Search Me, O God
TTITLE2=Stop, Look and Listen
TTITLE3=Not Enough
TTITLE4=The Best
TTITLE5=Thank God
TTITLE6=Make Me A Friend
TTITLE7=What A Friend We Have In Jesus
TTITLE8=Clear My Mind
TTITLE9=Jesus What A Wonder You Are(Jesus How Lovely You Are)
TTITLE10=Seek Ye First
TTITLE11=Cause Me To Come
TTITLE12=I Thank You Jesus
TTITLE13=I Will Serve You (Thee)
TTITLE14=I Keep Falling In Love With Him
EXTD=
EXTT0=
EXTT1=
EXTT2=
EXTT3=
EXTT4=
EXTT5=
EXTT6=
EXTT7=
EXTT8=
EXTT9=
EXTT10=
EXTT11=
EXTT12=
EXTT13=
EXTT14=
PLAYORDER=
